<svg width="33" height="32" viewBox="0 0 33 32" fill="none" xmlns="http://www.w3.org/2000/svg">
<g id="mingcute:home-4-line">
<g id="Group">
<path id="Vector" fill-rule="evenodd" clip-rule="evenodd" d="M14.9 3.53336C15.3616 3.18717 15.923 3.00003 16.5 3.00003C17.077 3.00003 17.6384 3.18717 18.1 3.53336L27.4333 10.5334C27.7645 10.7818 28.0333 11.1038 28.2185 11.4741C28.4036 11.8444 28.5 12.2527 28.5 12.6667V25.3334C28.5 26.0406 28.219 26.7189 27.719 27.219C27.2189 27.7191 26.5406 28 25.8333 28H19.3C18.911 28 18.538 27.8455 18.2629 27.5705C17.9879 27.2954 17.8333 26.9223 17.8333 26.5334V18.6667C17.8333 18.3131 17.6929 17.9739 17.4428 17.7239C17.1928 17.4738 16.8536 17.3334 16.5 17.3334C16.1464 17.3334 15.8072 17.4738 15.5572 17.7239C15.3071 17.9739 15.1667 18.3131 15.1667 18.6667V26.5334C15.1667 26.726 15.1287 26.9167 15.055 27.0946C14.9813 27.2726 14.8733 27.4343 14.7371 27.5705C14.6009 27.7066 14.4392 27.8147 14.2613 27.8884C14.0833 27.9621 13.8926 28 13.7 28H7.16667C6.45942 28 5.78115 27.7191 5.28105 27.219C4.78095 26.7189 4.5 26.0406 4.5 25.3334V12.6667C4.5 12.2527 4.59639 11.8444 4.78153 11.4741C4.96667 11.1038 5.23548 10.7818 5.56667 10.5334L14.9 3.53336ZM16.5 5.6667L7.16667 12.6667V25.3334H12.5V18.6667C12.5 17.6058 12.9214 16.5884 13.6716 15.8383C14.4217 15.0881 15.4391 14.6667 16.5 14.6667C17.5609 14.6667 18.5783 15.0881 19.3284 15.8383C20.0786 16.5884 20.5 17.6058 20.5 18.6667V25.3334H25.8333V12.6667L16.5 5.6667Z" fill="#BBBBBB"/>
</g>
</g>
</svg>
